<svg width="46" height="47" viewBox="0 0 46 47" fill="none" xmlns="http://www.w3.org/2000/svg"><g clip-path="url(#a)"><path d="M22.93 46.6a22.68 22.68 0 1 0 0-45.36 22.68 22.68 0 0 0 0 45.36Z" stroke="#fff" stroke-width=".5"/><path d="M12.56 18.17v12.26H9.93v-9.8h-.08L7 22.39v-2.3l3.08-1.92h2.48ZM21.05 18c.65 0 1.26.1 1.85.32.6.2 1.13.55 1.6 1 .47.47.84 1.09 1.11 1.85.28.76.42 1.7.42 2.81 0 1.04-.12 1.97-.36 2.79-.23.81-.57 1.5-1.01 2.08a4.42 4.42 0 0 1-3.7 1.74 4.9 4.9 0 0 1-2.2-.47 4 4 0 0 1-2.24-3.15h2.6c.1.44.31.8.64 1.04.32.24.72.36 1.2.36.81 0 1.43-.34 1.85-1.04.42-.7.64-1.65.64-2.87h-.08c-.2.36-.44.67-.76.93-.31.26-.68.46-1.09.6-.4.13-.83.2-1.3.2a3.68 3.68 0 0 1-3.33-1.9 4.1 4.1 0 0 1-.49-2.04 4.04 4.04 0 0 1 2.2-3.7c.71-.37 1.53-.55 2.45-.55Zm.02 2.04a2.1 2.1 0 0 0-1.85 1.05c-.18.33-.27.69-.26 1.09 0 .4.09.76.26 1.09a2.08 2.08 0 0 0 1.82 1.05 2.12 2.12 0 0 0 2.15-2.15 2.18 2.18 0 0 0-1.03-1.84c-.32-.2-.69-.3-1.09-.3ZM32.6 28.56v-8.48h2.18v8.48H32.6Zm-3.21-3.17v-2.14H38v2.14h-8.61Z" fill="#fff"/></g><defs><clipPath id="a"><path fill="#fff" d="M0 0h46v47H0z"/></clipPath></defs></svg>