<svg width="100" height="15" viewBox="0 0 100 15" fill="none" xmlns="http://www.w3.org/2000/svg"><path d="M10.35 3.68a3.06 3.06 0 0 1-.81 1.65c-.43.44-.94.74-1.54.91.53.12.95.38 1.26.78.31.4.47.88.47 1.43a3.38 3.38 0 0 1-1.42 2.74c-.76.54-1.73.81-2.9.81H.18L2.16.77h5.06c1 0 1.8.2 2.35.62s.83 1 .83 1.73c0 .18-.02.37-.05.56ZM5.87 5.33c.46 0 .83-.1 1.1-.3.28-.2.45-.5.52-.89l.01-.25c0-.31-.1-.55-.3-.7-.2-.18-.5-.26-.9-.26H4.51l-.41 2.4h1.77Zm1.09 3.25.03-.3c0-.3-.11-.54-.33-.71a1.44 1.44 0 0 0-.93-.27H3.74L3.3 9.82H5.3c.47 0 .84-.1 1.12-.32.28-.2.46-.52.53-.92ZM18.07 10.02h-4.2L12.85 12H10L16.03.77h3.17L21.28 12h-2.9l-.31-1.98Zm-.32-2.08-.66-4.16-2.14 4.16h2.8ZM32.58.77l-.36 2.16h-3L27.62 12H24.9l1.6-9.07H23.5L23.9.77h8.68ZM36.3 2.93l-.4 2.33h3.67l-.37 2.07h-3.66l-.45 2.51h4.15L38.85 12h-6.88L33.96.77h6.88l-.39 2.16h-4.14ZM47.2.77c1.17 0 2.05.26 2.66.8.6.52.91 1.2.91 2.05a3.96 3.96 0 0 1-1.04 2.69c-.52.58-1.22 1-2.1 1.24L49.46 12h-3.1l-1.58-4.24h-.65L43.37 12h-2.74L42.6.77h4.6Zm.7 3.65.04-.34c0-.34-.11-.6-.33-.78-.22-.2-.54-.3-.96-.3h-1.7l-.5 2.82h1.7c.5 0 .9-.12 1.18-.36.3-.25.5-.6.58-1.04ZM62.68.77l-5.2 7.52-.67 3.71h-2.74l.68-3.71L52.17.77h3.1l1.35 4.69 3-4.7h3.06ZM63.06 12.13a1.5 1.5 0 0 1-1.02-.34 1.17 1.17 0 0 1-.37-.88c0-.49.18-.9.55-1.25.37-.34.83-.5 1.37-.5.42 0 .75.1 1 .34.24.23.36.52.36.88 0 .48-.18.9-.56 1.24-.36.34-.8.5-1.33.5ZM83.76.77 78.84 12h-3.3l-.5-7.38L71.88 12h-3.3L67.7.77h2.93l.17 8.17L74.25.77h3.03l.48 8.13L80.8.77h2.95ZM87.86.77 85.88 12h-2.74L85.13.77h2.73ZM97.91 12h-2.73l-3.35-6.93L90.6 12h-2.74L89.85.77h2.73l3.35 6.96L97.16.77h2.74L97.9 12ZM0 13.6h99.72v.8H0v-.8Z" fill="#fff"/></svg>