<svg version="1" xmlns="http://www.w3.org/2000/svg" width="682.667" height="682.667" viewBox="0 0 512.000000 512.000000"><path d="M57 .7C30.8 4.8 10.5 22.5 2.4 48.5.6 54.3.5 61.6.5 256s.1 201.7 1.9 207.5c7.2 23 23.1 38.9 46.1 46.1 5.8 1.8 13.1 1.9 207.5 1.9s201.7-.1 207.5-1.9c23-7.2 38.9-23.1 46.1-46.1 1.8-5.8 1.9-13.1 1.9-207.5s-.1-201.7-1.9-207.5c-7.1-22.7-22-37.9-45.1-45.9C458.5.5 458.3.5 259 .4 149.3.3 58.4.4 57 .7zm361.4 112.9c.9.3 1.6 1.7 1.6 3.1 0 3.1-11.4 50.2-13.5 56-.9 2.3-2.4 4.5-3.3 5-.9.4-28.9 1-62.2 1.3l-60.5.5-6.6 3.2c-7.2 3.6-10.6 7.5-13.4 15.3-1.3 3.7-7.5 28.1-7.5 29.6 0 .2 26.1.4 58.1.4 38.1 0 58.7.4 60 1 1 .6 1.9 1.8 1.9 2.8 0 2.6-10.8 47.1-12.5 51.9-2.9 7.7.6 7.3-64.8 7.3h-58.3l-11.8 48.2c-14.7 60.7-15 61.6-18.2 62.8-1.4.6-17.8 1-38 1-34.1 0-35.5-.1-37.4-2-1.1-1.1-2-2.8-2-3.8 0-2.9 50.9-210.3 53.1-216.7 5.8-16 16.6-32.7 27.5-42.4 13.9-12.4 33-21.1 53-24 6.7-1 152.4-1.4 154.8-.5z"/></svg>