<svg width="287" height="137" viewBox="0 0 287 137" fill="none" xmlns="http://www.w3.org/2000/svg"><path d="M41.8 19.2c-1-2-2.5-3.4-4.5-4.4-2-1-4.3-1.6-7-1.6-4.5 0-8.2 1.5-11 4.5a17 17 0 0 0-4.1 12c0 5.5 1.4 9.7 4.3 12.7 3 3 7 4.5 12 4.5 3.5 0 6.5-.9 8.8-2.7a15 15 0 0 0 5.3-7.6h-18V26h31v13.2c-1.1 3.6-3 6.9-5.5 10a29.6 29.6 0 0 1-22.7 10.2c-5.7 0-10.8-1.3-15.4-3.8-4.5-2.6-8-6-10.5-10.6A31.1 31.1 0 0 1 .7 29.8a31 31 0 0 1 3.8-15.4C7 10 10.5 6.4 15 4 19.5 1.3 24.6 0 30.4 0c7 0 12.8 1.7 17.6 5 4.8 3.4 8 8 9.5 14H41.8Zm38.8-7v11.7h19v11h-19v12.7H102V59H66.4V.7H102v11.4H80.6ZM153.2.6v11.4h-15.4V59h-14.2V12.1H108V.7h45Zm33.2 52.8H175l-1.8 5.5h-8l11.3-30.9h8.7L196.3 59h-8l-1.9-5.5Zm-1.9-5.8-3.8-11.3-3.8 11.3h7.6Z" fill="#fff"/><path d="M38.4 106.1a14 14 0 0 1 11.2 14c0 5-1.7 8.8-5.1 11.7a21.5 21.5 0 0 1-14.2 4.2H3V77.7h26.3c5.9 0 10.5 1.4 13.8 4.1 3.4 2.7 5.1 6.4 5.1 11a13.2 13.2 0 0 1-9.9 13.3Zm-21-4.8h9.2c2.4 0 4.1-.5 5.3-1.5 1.3-1 2-2.6 2-4.6 0-2-.7-3.5-2-4.5-1.2-1-3-1.6-5.3-1.6h-9.3v12.2Zm10.4 23.2c2.4 0 4.2-.5 5.5-1.5 1.3-1.1 2-2.7 2-4.8a6 6 0 0 0-2.1-4.8 8.2 8.2 0 0 0-5.6-1.7H17.3v12.8h10.5Zm57.6 12a29 29 0 0 1-30-29.9 29 29 0 0 1 14.9-26C75 78.3 80 77 85.4 77s10.5 1.3 15 3.8c4.6 2.6 8.2 6.1 10.8 10.6 2.7 4.6 4 9.7 4 15.4s-1.3 10.8-4 15.4c-2.6 4.6-6.2 8.1-10.8 10.7a30.2 30.2 0 0 1-15 3.8Zm0-12.9c4.7 0 8.4-1.5 11.1-4.6 2.9-3.1 4.3-7.2 4.3-12.3 0-5.1-1.4-9.2-4.3-12.3a14.2 14.2 0 0 0-11-4.6c-4.8 0-8.6 1.5-11.4 4.5-2.7 3-4.1 7.2-4.1 12.4 0 5.1 1.4 9.3 4.1 12.4 2.8 3 6.6 4.5 11.3 4.5Zm89.8 12.4H161l-23.7-36v36h-14.2V77.7h14.2l23.7 36.1v-36h14.2V136Zm24.3-58.3v34.9c0 3.5.8 6.2 2.5 8 1.8 2 4.3 2.9 7.6 2.9s5.9-1 7.6-2.9c1.8-1.8 2.7-4.5 2.7-8V77.7H234v34.8c0 5.2-1.1 9.6-3.3 13.2a21.2 21.2 0 0 1-9 8.1 27.8 27.8 0 0 1-12.5 2.8 28 28 0 0 1-12.3-2.7 20.5 20.5 0 0 1-8.6-8.1c-2-3.7-3.1-8-3.1-13.3V77.7h14.2Zm65.6 58.9c-4.2 0-8-.7-11.4-2a17 17 0 0 1-11.3-16h15c.3 2.1 1 3.8 2.3 5 1.3 1 3 1.6 5 1.6a8 8 0 0 0 5-1.4 5 5 0 0 0 1.8-4c0-1.5-.5-2.7-1.5-3.6a11 11 0 0 0-3.5-2.4 54 54 0 0 0-6-2 65.5 65.5 0 0 1-9.2-3.5 17 17 0 0 1-6.2-5.2 14.3 14.3 0 0 1-2.6-8.8c0-5.5 2-9.7 6-12.7 3.9-3.1 9-4.7 15.3-4.7 6.4 0 11.6 1.6 15.5 4.7 4 3 6 7.3 6.3 12.7h-15.3a5.9 5.9 0 0 0-2.1-4.4 7.2 7.2 0 0 0-4.9-1.6 6 6 0 0 0-4.2 1.4c-1 .9-1.5 2.2-1.5 3.9 0 1.9.9 3.3 2.6 4.4 1.8 1 4.6 2.2 8.3 3.4a74 74 0 0 1 9.2 3.6c2.3 1.2 4.4 2.9 6.1 5.1 1.7 2.2 2.6 5 2.6 8.6a17.4 17.4 0 0 1-9.9 15.5c-3.2 1.6-7 2.4-11.4 2.4Z" fill="#FA982B"/></svg>