<svg width="336" height="137" viewBox="0 0 336 137" fill="none" xmlns="http://www.w3.org/2000/svg"><path d="M177.09 19.5a19 19 0 0 1-2.33 9.29c-1.55 2.77-3.92 5-7.13 6.72-3.21 1.72-7.2 2.57-11.96 2.57h-8.8V59h-14.19V.73h23c4.64 0 8.57.8 11.78 2.41 3.21 1.6 5.62 3.82 7.22 6.64a19.3 19.3 0 0 1 2.4 9.71Zm-22.5 7.3c2.72 0 4.74-.64 6.07-1.91 1.32-1.28 1.99-3.07 1.99-5.4 0-2.32-.67-4.12-2-5.4-1.32-1.27-3.34-1.9-6.05-1.9h-7.72v14.6h7.72Zm44.08 21.24h18.6V59h-32.8V.73h14.2v47.31Zm61.63.67h-21.74L235.07 59h-14.86L241.3.73h16.43L278.81 59H263.8l-3.49-10.3Zm-3.65-10.96-7.22-21.33-7.14 21.33h14.36ZM335.2.73l-20.17 39.01V59h-14.2V39.74l-20.17-39h16.1l11.3 24.4 11.2-24.4h15.94ZM23.9 105.11v6.03h-8.2V136H8.19v-24.86H0v-6.03h23.9Zm30.52 0V136H46.9v-12.72H35.2V136h-7.53v-30.89h7.52v12.1h11.7v-12.1h7.53Zm12.96 6.03v6.25h10.07v5.8H67.38v6.78h11.4V136H59.84v-30.89h18.92v6.03h-11.4Zm66.7-14.98a10.33 10.33 0 0 0-4.57-4.4 14.25 14.25 0 0 0-6.89-1.58c-4.59 0-8.27 1.53-11.04 4.57-2.76 2.99-4.15 7-4.15 12.03 0 5.37 1.44 9.58 4.32 12.62 2.93 2.99 6.94 4.48 12.04 4.48 3.48 0 6.41-.88 8.8-2.65 2.43-1.78 4.2-4.32 5.3-7.64h-18v-10.46h30.87v13.2a27.54 27.54 0 0 1-5.4 9.88 27.82 27.82 0 0 1-9.54 7.38 29.64 29.64 0 0 1-13.11 2.82c-5.76 0-10.9-1.24-15.44-3.73-4.48-2.55-8-6.06-10.54-10.54-2.5-4.48-3.74-9.6-3.74-15.36 0-5.75 1.25-10.87 3.74-15.35a26.82 26.82 0 0 1 10.54-10.54c4.48-2.55 9.6-3.82 15.35-3.82 6.98 0 12.84 1.69 17.6 5.06 4.81 3.38 8 8.05 9.54 14.03h-15.68Zm60.81 29.55h-21.74L169.66 136H154.8l21.08-58.27h16.44L213.4 136h-15.02l-3.49-10.3Zm-3.65-10.96-7.22-21.33-7.14 21.33h14.36Zm94.56-37.02V136h-14.19v-34.94L258.58 136h-11.45L234 100.97V136h-14.2V77.73h16.77l16.35 40.34 16.19-40.34h16.68Zm24.4 11.38v11.78h19v10.96h-19v12.78h21.5V136H296V77.73h35.7V89.1h-21.5Z" fill="#fff"/></svg>