<svg width="774" height="138" viewBox="0 0 774 138" fill="none" xmlns="http://www.w3.org/2000/svg"><path d="M177 20.5a19 19 0 0 1-2.2 9.3c-1.6 2.7-4 5-7.2 6.7a25 25 0 0 1-12 2.6H147V60h-14.2V1.7h23c4.6 0 8.6.8 11.8 2.4 3.2 1.6 5.6 3.9 7.2 6.7a19.3 19.3 0 0 1 2.4 9.7Zm-22.4 7.3c2.7 0 4.7-.6 6-2 1.4-1.2 2-3 2-5.3s-.6-4.1-2-5.4c-1.3-1.3-3.3-2-6-2h-7.7v14.7h7.7Zm44 21.2h18.7v11h-32.8V1.7h14.2V49Zm61.7.7h-21.7L235 60h-14.9l21.1-58.3h16.4L278.8 60h-15l-3.5-10.3Zm-3.6-11-7.3-21.3-7.1 21.4h14.4Zm78.5-37-20.2 39V60h-14.2V40.7l-20.1-39h16l11.4 24.4 11.2-24.4h15.9ZM23.9 106.1v6h-8.2V137H8.2v-24.9H0v-6h23.9Zm30.5 0V137H47v-12.7H35.2V137h-7.5v-30.9h7.5v12.1h11.7v-12h7.5Zm13 6v6.3h10v5.8h-10v6.8h11.4v6h-19v-30.9h19v6H67.4Zm66.7-15a10.3 10.3 0 0 0-4.6-4.3 14.2 14.2 0 0 0-6.9-1.6c-4.6 0-8.2 1.5-11 4.5a17 17 0 0 0-4.2 12c0 5.4 1.5 9.7 4.4 12.7 2.9 3 6.9 4.5 12 4.5 3.5 0 6.4-.9 8.8-2.7a15 15 0 0 0 5.3-7.6h-18V104h30.9v13.2a27.5 27.5 0 0 1-5.4 10 27.8 27.8 0 0 1-9.6 7.3 29.6 29.6 0 0 1-13 2.8c-5.8 0-11-1.2-15.5-3.7-4.5-2.6-8-6-10.6-10.6a31 31 0 0 1-3.7-15.3 31 31 0 0 1 3.7-15.4A26.8 26.8 0 0 1 107.3 82c4.5-2.6 9.6-3.8 15.3-3.8 7 0 12.9 1.7 17.6 5 4.8 3.4 8 8 9.6 14H134Zm60.8 29.6h-21.8l-3.4 10.3h-14.9l21-58.3h16.5l21.1 58.3h-15l-3.5-10.3Zm-3.7-11L184 94.5l-7.1 21.3h14.3Zm94.6-37V137h-14.2v-35l-13 35H247L234 102v35h-14.2V78.7h16.8l16.3 40.4 16.2-40.4h16.7Zm24.4 11.4v11.8h19v11h-19v12.7h21.5V137H296V78.7h35.7v11.4h-21.5Zm172.9-71a10.3 10.3 0 0 0-4.6-4.4 14.2 14.2 0 0 0-6.9-1.6c-4.6 0-8.2 1.5-11 4.6a17 17 0 0 0-4.2 12c0 5.4 1.5 9.6 4.4 12.6 2.9 3 6.9 4.5 12 4.5 3.5 0 6.4-.9 8.8-2.6a15 15 0 0 0 5.3-7.7h-18V26.1h30.9v13.2a27.5 27.5 0 0 1-5.4 9.8 27.8 27.8 0 0 1-9.6 7.4 29.6 29.6 0 0 1-13 2.8c-5.8 0-11-1.2-15.5-3.7s-8-6-10.6-10.5a31 31 0 0 1-3.7-15.4 31 31 0 0 1 3.7-15.3 26.8 26.8 0 0 1 10.6-10.6c4.5-2.5 9.6-3.8 15.3-3.8 7 0 12.9 1.7 17.6 5 4.8 3.4 8 8.1 9.6 14H483Zm38.7-7v11.7h19v11h-19v12.8h21.5v11.3h-35.7V.7h35.7V12h-21.5ZM594.5.6V12H579v47h-14.2V12h-15.4V.7h45Zm33.2 52.8h-11.5l-1.9 5.4h-7.8L617.6 28h8.7l11.2 31h-8l-1.8-5.5Zm-2-5.8L622 36.4l-3.7 11.3h7.6Z" fill="#fff"/><path d="M479.7 106c3.4.8 6 2.4 8.1 5.1a14.1 14.1 0 0 1 3 9c0 4.9-1.6 8.7-5 11.6a21.5 21.5 0 0 1-14.3 4.2h-27V77.7h26.1c6 0 10.6 1.3 13.9 4 3.4 2.7 5 6.4 5 11 0 3.5-.8 6.3-2.7 8.6a13.7 13.7 0 0 1-7.1 4.7Zm-21.1-4.8h9.3c2.3 0 4.1-.5 5.3-1.5 1.3-1 2-2.5 2-4.5s-.7-3.5-2-4.6c-1.2-1-3-1.6-5.3-1.6h-9.3v12.2Zm10.5 23.3c2.3 0 4.2-.6 5.4-1.6 1.4-1.1 2-2.7 2-4.7a6 6 0 0 0-2-4.9 8.2 8.2 0 0 0-5.6-1.7h-10.3v12.9h10.5Zm57.6 12a30.6 30.6 0 0 1-15.1-3.8 29 29 0 0 1-10.9-10.6 30.3 30.3 0 0 1-4-15.5c0-5.7 1.3-10.8 4-15.3a29 29 0 0 1 10.9-10.6 30.6 30.6 0 0 1 15-3.9c5.5 0 10.6 1.3 15.1 3.9a27.7 27.7 0 0 1 10.8 10.6 29.8 29.8 0 0 1 4 15.3c0 5.7-1.4 10.9-4 15.5a28.4 28.4 0 0 1-10.8 10.6 30.2 30.2 0 0 1-15 3.8Zm0-13c4.6 0 8.3-1.5 11.1-4.6 2.8-3 4.2-7.2 4.2-12.3 0-5.1-1.4-9.2-4.2-12.2a14.2 14.2 0 0 0-11.1-4.7c-4.7 0-8.5 1.5-11.3 4.6-2.8 3-4.2 7.1-4.2 12.3 0 5.2 1.4 9.3 4.2 12.4 2.8 3 6.6 4.6 11.3 4.6Zm89.8 12.4h-14.2l-23.7-36v36h-14.2V77.7h14.2l23.7 36v-36h14.2v58.2Zm24.2-58.2v34.8c0 3.5.9 6.2 2.6 8 1.7 2 4.2 2.9 7.6 2.9 3.3 0 5.8-1 7.6-2.8 1.8-2 2.6-4.6 2.6-8v-35h14.2v34.8c0 5.2-1 9.6-3.3 13.2a21.2 21.2 0 0 1-9 8.2 27.8 27.8 0 0 1-12.4 2.7c-4.6 0-8.7-.9-12.4-2.6a20.5 20.5 0 0 1-8.5-8.2c-2.1-3.6-3.2-8-3.2-13.3V77.7h14.2Zm65.7 58.8c-4.3 0-8.1-.7-11.5-2a19 19 0 0 1-8.1-6.2c-2-2.7-3-6-3.2-9.8h15.1c.3 2.2 1 3.8 2.3 5a7.3 7.3 0 0 0 5 1.6 8 8 0 0 0 5-1.4 5 5 0 0 0 1.8-4 4.7 4.7 0 0 0-1.5-3.6 11 11 0 0 0-3.6-2.3c-1.4-.6-3.4-1.3-6-2.1a65.5 65.5 0 0 1-9.2-3.5 17 17 0 0 1-6.1-5.1 14.3 14.3 0 0 1-2.6-9c0-5.3 2-9.6 6-12.6 3.8-3.1 9-4.7 15.3-4.7 6.4 0 11.5 1.6 15.5 4.7 3.9 3 6 7.3 6.3 12.8h-15.4a5.9 5.9 0 0 0-2-4.4 7.2 7.2 0 0 0-5-1.7 6 6 0 0 0-4 1.4c-1.1.9-1.7 2.2-1.7 4 0 1.8 1 3.3 2.7 4.3 1.8 1 4.5 2.2 8.3 3.4a74 74 0 0 1 9.1 3.7 17.4 17.4 0 0 1 6.2 5c1.7 2.3 2.5 5.1 2.5 8.6 0 3.3-.8 6.3-2.5 9a17.4 17.4 0 0 1-7.3 6.5c-3.3 1.6-7 2.4-11.4 2.4Z" fill="#FA982B"/></svg>